<svg xmlns="http://www.w3.org/2000/svg" xmlns:xlink="http://www.w3.org/1999/xlink" fill="none" version="1.1" width="512" height="512" viewBox="0 0 512 512"><defs><clipPath id="master_svg0_167_08902"><rect x="0" y="0" width="512" height="512" rx="0"/></clipPath><filter id="master_svg1_167_11479" filterUnits="objectBoundingBox" color-interpolation-filters="sRGB" x="-0.15883963378116778" y="-0.1535087685053247" width="1.3176792675623357" height="1.3070175370106494"><feFlood flood-opacity="0" result="BackgroundImageFix"/><feColorMatrix in="SourceAlpha" type="matrix" values="0 0 0 0 0 0 0 0 0 0 0 0 0 0 0 0 0 0 127 0"/><feOffset dy="0" dx="0"/><feGaussianBlur stdDeviation="10.5"/><feColorMatrix type="matrix" values="0 0 0 0 1 0 0 0 0 1 0 0 0 0 1 0 0 0 1 0"/><feBlend mode="normal" in2="BackgroundImageFix" result="effect1_dropShadow"/><feBlend mode="normal" in="SourceGraphic" in2="effect1_dropShadow" result="shape"/></filter></defs><g clip-path="url(#master_svg0_167_08902)"><rect x="0" y="0" width="512" height="512" rx="52" fill="#000000" fill-opacity="1"/><path d="M121.5999984741211,389.0000038964844L121.5999984741211,123.39999489648437C121.5999984741211,121.19085499648438,123.3908595741211,119.39999389648438,125.59999897412109,119.39999389648438L139.43518647412108,119.39999389648438C140.9942724741211,119.39999389648438,142.4112894741211,120.30587708648437,143.0657294741211,121.72096129648438L250.3215684741211,353.6385038964844C251.75531847412108,356.73866389648435,256.16441847412113,356.73150389648436,257.5880984741211,353.6267138964844L363.9203284741211,121.73276379648438C364.5721184741211,120.31128477648437,365.9925184741211,119.39999389648438,367.5562984741211,119.39999389648438L382.01762847412107,119.39999389648438C384.2267684741211,119.39999389648438,386.01762847412107,121.19085499648438,386.01762847412107,123.39999439648437L386.01762847412107,388.6823438964844C386.01762847412107,390.8914838964844,384.2267684741211,392.6823438964844,382.01762847412107,392.6823438964844L368.67232847412106,392.6823438964844C366.4631884741211,392.6823438964844,364.67232847412106,390.8914838964844,364.67232847412106,388.6823438964844L364.67232847412106,188.14632389648438C364.67232847412106,183.8480228964844,358.8182884741211,182.57515689648437,357.0334684741211,186.48537489648436L263.8376584741211,390.6609538964844C263.1872684741211,392.08581389648435,261.7650784741211,393.0000038964844,260.1987984741211,393.0000038964844L247.4188184741211,393.0000038964844C245.8525384741211,393.0000038964844,244.43037847412108,392.0858438964844,243.7799884741211,390.66098389648437L150.5811764741211,186.48484789648438C148.7963234741211,182.57466089648437,142.9423424741211,183.84755689648438,142.9423424741211,188.14583589648436L142.9423424741211,389.0000038964844C142.9423424741211,391.2091338964844,141.15148147412108,393.0000038964844,138.9423424741211,393.0000038964844L125.5999984741211,393.0000038964844C123.3908595741211,393.0000038964844,121.5999984741211,391.2091338964844,121.5999984741211,389.0000038964844" fill="#FFFFFF" fill-opacity="1" filter="url(#master_svg1_167_11479)"/></g></svg>