<svg xmlns="http://www.w3.org/2000/svg" xmlns:xlink="http://www.w3.org/1999/xlink" fill="none" version="1.1" width="16" height="16" viewBox="0 0 16 16"><defs><clipPath id="master_svg0_176_09779"><rect x="0" y="0" width="16" height="16" rx="0"/></clipPath></defs><g clip-path="url(#master_svg0_176_09779)"><g><path d="M0,1.625L0,14.375C0,15.272463,0.72753721,16,1.625,16L14.375,16C15.272463,16,16,15.272463,16,14.375L16,1.625C16,0.72753721,15.272463,0,14.375,0L1.625,0C0.72753721,0,0,0.72753721,0,1.625ZM3.500061,12.080665L3.500061,3.9306643Q3.500061,3.7235575,3.6465075,3.5771108Q3.7929542,3.4306641,4.000061,3.4306641L4.309464,3.4306641Q4.6291084,3.4306641,4.7632818,3.7207851L7.9353857,10.579773L11.079817,3.7222595Q11.213526,3.4306641,11.534314,3.4306641L11.863112,3.4306641Q12.07022,3.4306641,12.216666,3.577111Q12.363112,3.7235575,12.363112,3.9306641L12.363112,12.070738Q12.363112,12.277845,12.216666,12.424292Q12.07022,12.570738,11.863112,12.570738L11.596071,12.570738Q11.388964,12.570738,11.242517,12.424292Q11.096071,12.277844,11.096071,12.070738L11.096071,6.6838269L8.53792,12.288283Q8.4044628,12.580665,8.0830641,12.580665L7.7801089,12.580665Q7.4587145,12.580665,7.3252549,12.28829L4.7670097,6.6837902L4.7670093,12.080665Q4.7670093,12.287772,4.6205626,12.434218Q4.4741158,12.580665,4.2670093,12.580665L4.000061,12.580665Q3.7929544,12.580665,3.646508,12.434218Q3.500061,12.287772,3.500061,12.080665Z" fill-rule="evenodd" fill="#000000" fill-opacity="1"/></g></g></svg>