<svg xmlns="http://www.w3.org/2000/svg" viewBox="0 0 100 100"><path d="M100 50c0-27.6-22.4-50-50-50S0 22.4 0 50s22.4 50 50 50 50-22.4 50-50ZM59.7 68.7h3.2L45.6 99.8h-1.4S39.4 69 39.4 68.9c0-.1 0-.3.2-.3h3c.4 0 .6-.3.6-.5L48.7 39c.1-.6-.4-.7-.6-.7H34.2c-.1 0-.7 0-.6-.6l5-29.6c0-.1 0-.2.2-.2h14.8c1.4 0 .1.2.1.2l-.5 1.9H41.9L40 21.2c0 .2 0 .7.7.7h9.7l-.4 1.9h-9.9c-.5 0-.6.3-.6.5l-1.9 11.4h11.6c.2 0 .2.1.2.1l-.4 1.7c0 .5.3.7.5.7h2.9c8.6-.4 11.7 3.7 11.8 7.9 0 4.3-3.4 8.7-8.4 8.9-1.5 0-2.8-.5-3.1-.6v-.5c10.5 1.2 13.5-15-.4-13.1l-5.4 28h-3.1c-.6 0-.6.4-.5.5l3.6 23.1s12.9-23.6 12.9-23.7Z" style="fill:#fff"/></svg>